<svg xmlns="http://www.w3.org/2000/svg" viewBox="0 0 400 200" fill="none">
  <rect width="400" height="200" fill="#f5f5f5"/>
  <!-- dart body -->
  <g transform="translate(200,100) rotate(-30)">
    <!-- point/tip -->
    <polygon points="-90,0 -70,-3 -70,3" fill="#9e9e9e"/>
    <!-- barrel -->
    <rect x="-70" y="-5" width="60" height="10" rx="2" fill="#bdbdbd"/>
    <!-- barrel grip texture -->
    <line x1="-60" y1="-5" x2="-60" y2="5" stroke="#a0a0a0" stroke-width="0.8"/>
    <line x1="-55" y1="-5" x2="-55" y2="5" stroke="#a0a0a0" stroke-width="0.8"/>
    <line x1="-50" y1="-5" x2="-50" y2="5" stroke="#a0a0a0" stroke-width="0.8"/>
    <line x1="-45" y1="-5" x2="-45" y2="5" stroke="#a0a0a0" stroke-width="0.8"/>
    <line x1="-40" y1="-5" x2="-40" y2="5" stroke="#a0a0a0" stroke-width="0.8"/>
    <line x1="-35" y1="-5" x2="-35" y2="5" stroke="#a0a0a0" stroke-width="0.8"/>
    <line x1="-30" y1="-5" x2="-30" y2="5" stroke="#a0a0a0" stroke-width="0.8"/>
    <line x1="-25" y1="-5" x2="-25" y2="5" stroke="#a0a0a0" stroke-width="0.8"/>
    <line x1="-20" y1="-5" x2="-20" y2="5" stroke="#a0a0a0" stroke-width="0.8"/>
    <!-- shaft -->
    <rect x="-10" y="-3" width="40" height="6" rx="1" fill="#c8c8c8"/>
    <!-- flight -->
    <polygon points="30,-2 55,-18 55,-2" fill="#d4d4d4" stroke="#bdbdbd" stroke-width="0.5"/>
    <polygon points="30,2 55,18 55,2" fill="#d4d4d4" stroke="#bdbdbd" stroke-width="0.5"/>
  </g>
</svg>
